<svg width="447" height="330" viewBox="0 0 447 330" fill="none" xmlns="http://www.w3.org/2000/svg">
<g filter="url(#filter0_f)">
<path d="M123.148 233.763C177.548 233.763 221.648 189.439 221.648 134.763C221.648 80.0868 177.548 35.7629 123.148 35.7629C68.7479 35.7629 24.6479 80.0868 24.6479 134.763C24.6479 189.439 68.7479 233.763 123.148 233.763Z" fill="#FA9E42"/>
<g filter="url(#filter1_f)">
<path d="M116.03 120.684C148.767 103.296 167.077 73.7096 156.928 54.6004C146.778 35.4912 112.012 34.0957 79.2749 51.4835C46.5383 68.8714 28.228 98.4581 38.3778 117.567C48.5275 136.677 83.2938 138.072 116.03 120.684Z" fill="#F8E36F"/>
</g>
<g filter="url(#filter2_d)">
<path d="M316.993 297.763H125.561C106.991 297.749 89.1455 290.551 75.7616 277.678C62.3777 264.804 54.4927 247.252 53.7572 228.696C53.0217 210.14 59.4927 192.019 71.8156 178.127C84.1386 164.234 101.358 155.647 119.869 154.163C122.509 135.523 130.926 118.18 143.937 104.573C156.947 90.9661 173.896 81.7809 192.4 78.3093C210.903 74.8377 230.029 77.2544 247.087 85.2196C264.145 93.1848 278.276 106.297 287.493 122.713C304.398 116.861 322.663 116.177 339.959 120.749C357.254 125.321 372.796 134.94 384.601 148.382C396.406 161.823 403.941 178.476 406.242 196.216C408.544 213.957 405.509 231.981 397.525 247.99C392.839 262.453 383.692 275.061 371.397 284.003C359.101 292.945 344.289 297.762 329.085 297.763H316.993Z" fill="url(#paint0_linear)"/>
<path d="M329.085 296.762C336.804 296.762 344.394 295.53 351.644 293.099C358.654 290.748 365.235 287.318 371.205 282.903C377.106 278.539 382.279 273.311 386.58 267.365C390.935 261.345 394.297 254.723 396.573 247.682L396.597 247.61L396.631 247.542C399.658 241.494 401.989 235.096 403.559 228.526C405.174 221.766 405.993 214.78 405.993 207.762C405.993 201.723 405.385 195.688 404.185 189.825C403.016 184.111 401.271 178.491 399 173.12C396.769 167.847 394.008 162.76 390.794 158.003C387.61 153.29 383.953 148.858 379.926 144.83C375.898 140.802 371.466 137.146 366.753 133.962C361.995 130.747 356.909 127.987 351.636 125.756C346.265 123.485 340.645 121.74 334.931 120.571C329.067 119.371 323.032 118.762 316.993 118.762C306.994 118.762 297.178 120.408 287.82 123.654L287.031 123.927L286.621 123.199C279.005 109.657 267.927 98.2846 254.585 90.3108C247.837 86.2782 240.588 83.1619 233.039 81.0486C225.25 78.8684 217.16 77.7629 208.993 77.7629C198.009 77.7629 187.286 79.7399 177.123 83.639C167.305 87.4056 158.298 92.8467 150.353 99.8109C142.454 106.735 135.899 114.905 130.869 124.094C125.716 133.508 122.349 143.67 120.859 154.298L120.748 155.093L119.947 155.156C110.989 155.857 102.37 158.216 94.3297 162.166C86.5173 166.005 79.5411 171.196 73.5949 177.597C61.3768 190.75 54.6479 207.886 54.6479 225.85C54.6479 235.423 56.5227 244.71 60.2202 253.452C61.9974 257.653 64.1971 261.706 66.7582 265.497C69.2951 269.252 72.2087 272.783 75.4179 275.993C78.627 279.202 82.1583 282.115 85.9135 284.652C89.7044 287.213 93.757 289.413 97.9586 291.19C106.7 294.888 115.987 296.762 125.561 296.762H316.993H329.085ZM329.085 297.762H316.993H125.561C85.8445 297.762 53.6479 265.566 53.6479 225.85C53.6479 188.049 82.8126 157.06 119.869 154.159C125.998 110.42 163.565 76.7629 208.993 76.7629C242.695 76.7629 272.07 95.2861 287.492 122.709C296.735 119.504 306.66 117.762 316.993 117.762C366.699 117.762 406.993 158.057 406.993 207.762C406.993 222.222 403.584 235.884 397.525 247.99C388.188 276.872 361.075 297.762 329.085 297.762Z" fill="white" fill-opacity="0.5"/>
</g>
</g>
<defs>
<filter id="filter0_f" x="16" y="16" width="394.993" height="285.763" filterUnits="userSpaceOnUse" color-interpolation-filters="sRGB">
<feFlood flood-opacity="0" result="BackgroundImageFix"/>
<feBlend mode="normal" in="SourceGraphic" in2="BackgroundImageFix" result="shape"/>
<feGaussianBlur stdDeviation="2" result="effect1_foregroundBlur"/>
</filter>
<filter id="filter1_f" x="0" y="0" width="195.305" height="172.168" filterUnits="userSpaceOnUse" color-interpolation-filters="sRGB">
<feFlood flood-opacity="0" result="BackgroundImageFix"/>
<feBlend mode="normal" in="SourceGraphic" in2="BackgroundImageFix" result="shape"/>
<feGaussianBlur stdDeviation="10" result="effect1_foregroundBlur"/>
</filter>
<filter id="filter2_d" x="33.6479" y="48.7629" width="413.345" height="281" filterUnits="userSpaceOnUse" color-interpolation-filters="sRGB">
<feFlood flood-opacity="0" result="BackgroundImageFix"/>
<feColorMatrix in="SourceAlpha" type="matrix" values="0 0 0 0 0 0 0 0 0 0 0 0 0 0 0 0 0 0 127 0" result="hardAlpha"/>
<feOffset dx="10" dy="2"/>
<feGaussianBlur stdDeviation="15"/>
<feColorMatrix type="matrix" values="0 0 0 0 0.501961 0 0 0 0 0.501961 0 0 0 0 0.501961 0 0 0 0.302 0"/>
<feBlend mode="normal" in2="BackgroundImageFix" result="effect1_dropShadow"/>
<feBlend mode="normal" in="SourceGraphic" in2="effect1_dropShadow" result="shape"/>
</filter>
<linearGradient id="paint0_linear" x1="230.346" y1="76.7654" x2="332.989" y2="324.929" gradientUnits="userSpaceOnUse">
<stop stop-color="white" stop-opacity="0.604"/>
<stop offset="1" stop-color="white" stop-opacity="0.2"/>
</linearGradient>
</defs>
</svg>
