<svg width="438" height="366" viewBox="0 0 438 366" fill="none" xmlns="http://www.w3.org/2000/svg">
<g filter="url(#filter0_f)">
<path d="M123.148 233.763C177.548 233.763 221.648 189.439 221.648 134.763C221.648 80.087 177.548 35.7632 123.148 35.7632C68.7479 35.7632 24.6479 80.087 24.6479 134.763C24.6479 189.439 68.7479 233.763 123.148 233.763Z" fill="#FA9E42"/>
<g filter="url(#filter1_f)">
<path d="M116.03 120.684C148.767 103.296 167.077 73.7094 156.928 54.6002C146.778 35.4909 112.012 34.0954 79.2749 51.4833C46.5383 68.8712 28.228 98.4579 38.3778 117.567C48.5275 136.676 83.2938 138.072 116.03 120.684Z" fill="#F8E36F"/>
</g>
<path d="M122.818 308.937C124.418 308.955 140.636 334.278 140.636 344.119C140.636 348.845 138.759 353.377 135.417 356.718C132.076 360.06 127.544 361.937 122.818 361.937C118.092 361.937 113.56 360.06 110.219 356.718C106.877 353.377 105 348.845 105 344.119C105 334.279 121.219 308.919 122.818 308.937Z" fill="#42A0F0"/>
<path d="M109.233 350.778C111.014 351.323 113.276 349.084 114.287 345.777C115.298 342.471 114.674 339.35 112.894 338.805C111.113 338.261 108.85 340.5 107.84 343.806C106.829 347.113 107.453 350.234 109.233 350.778Z" fill="white"/>
<path d="M215.818 308.937C217.418 308.955 233.636 334.278 233.636 344.119C233.636 348.845 231.759 353.377 228.417 356.718C225.076 360.06 220.544 361.937 215.818 361.937C211.092 361.937 206.56 360.06 203.219 356.718C199.877 353.377 198 348.845 198 344.119C198 334.279 214.219 308.919 215.818 308.937Z" fill="#42A0F0"/>
<path d="M202.233 350.778C204.014 351.323 206.276 349.084 207.287 345.777C208.298 342.471 207.674 339.35 205.894 338.805C204.113 338.261 201.85 340.5 200.84 343.806C199.829 347.113 200.453 350.234 202.233 350.778Z" fill="white"/>
<path d="M308.818 308.937C310.418 308.955 326.636 334.278 326.636 344.119C326.636 348.845 324.759 353.377 321.417 356.718C318.076 360.06 313.544 361.937 308.818 361.937C304.092 361.937 299.56 360.06 296.219 356.718C292.877 353.377 291 348.845 291 344.119C291 334.279 307.219 308.919 308.818 308.937Z" fill="#42A0F0"/>
<path d="M295.233 350.778C297.014 351.323 299.276 349.084 300.287 345.777C301.298 342.471 300.674 339.35 298.894 338.805C297.113 338.261 294.851 340.5 293.84 343.806C292.829 347.113 293.453 350.234 295.233 350.778Z" fill="white"/>
<path d="M169.818 230.937C171.418 230.955 187.636 256.278 187.636 266.119C187.636 270.845 185.759 275.377 182.417 278.718C179.076 282.06 174.544 283.937 169.818 283.937C165.092 283.937 160.56 282.06 157.219 278.718C153.877 275.377 152 270.845 152 266.119C152 256.279 168.219 230.919 169.818 230.937Z" fill="#42A0F0"/>
<path d="M156.233 272.778C158.014 273.323 160.276 271.084 161.287 267.777C162.298 264.471 161.674 261.35 159.894 260.805C158.113 260.261 155.85 262.5 154.84 265.806C153.829 269.113 154.453 272.234 156.233 272.778Z" fill="white"/>
<path d="M267.818 230.937C269.418 230.955 285.636 256.278 285.636 266.119C285.636 270.845 283.759 275.377 280.417 278.718C277.076 282.06 272.544 283.937 267.818 283.937C263.092 283.937 258.56 282.06 255.219 278.718C251.877 275.377 250 270.845 250 266.119C250 256.279 266.219 230.919 267.818 230.937Z" fill="#42A0F0"/>
<path d="M254.233 272.778C256.014 273.323 258.276 271.084 259.287 267.777C260.298 264.471 259.674 261.35 257.894 260.805C256.113 260.261 253.851 262.5 252.84 265.806C251.829 269.113 252.453 272.234 254.233 272.778Z" fill="white"/>
<g filter="url(#filter2_d)">
<path d="M307.998 297.937H116.566C97.9957 297.923 80.1507 290.726 66.7668 277.852C53.3829 264.978 45.4978 247.426 44.7623 228.87C44.0268 210.314 50.4978 192.193 62.8208 178.301C75.1437 164.408 92.3631 155.821 110.874 154.337C113.514 135.697 121.931 118.354 134.942 104.747C147.952 91.1402 164.902 81.9549 183.405 78.4833C201.908 75.0117 221.034 77.4285 238.092 85.3937C255.15 93.3589 269.281 106.472 278.498 122.887C295.403 117.035 313.668 116.351 330.964 120.923C348.259 125.495 363.801 135.115 375.606 148.556C387.412 161.997 394.946 178.65 397.248 196.39C399.549 214.131 396.515 232.155 388.53 248.164C383.845 262.627 374.698 275.235 362.402 284.177C350.106 293.119 335.294 297.936 320.09 297.937H307.998Z" fill="url(#paint0_linear)"/>
<path d="M320.09 296.937C327.809 296.937 335.399 295.704 342.649 293.273C349.659 290.922 356.241 287.492 362.21 283.077C368.112 278.713 373.284 273.485 377.586 267.539C381.94 261.519 385.302 254.897 387.578 247.856L387.602 247.784L387.636 247.716C390.663 241.668 392.994 235.27 394.564 228.7C396.179 221.94 396.998 214.954 396.998 207.937C396.998 201.897 396.39 195.862 395.19 189.999C394.021 184.285 392.276 178.665 390.005 173.294C387.774 168.021 385.014 162.935 381.799 158.177C378.615 153.464 374.959 149.032 370.931 145.004C366.903 140.976 362.471 137.32 357.758 134.136C353 130.921 347.914 128.161 342.641 125.93C337.27 123.659 331.65 121.914 325.936 120.745C320.073 119.545 314.038 118.937 307.998 118.937C297.999 118.937 288.184 120.582 278.825 123.828L278.036 124.102L277.626 123.373C270.01 109.831 258.932 98.4586 245.59 90.4848C238.842 86.4522 231.593 83.336 224.044 81.2227C216.255 79.0425 208.165 77.937 199.998 77.937C189.014 77.937 178.291 79.914 168.128 83.8131C158.31 87.5797 149.303 93.0207 141.358 99.985C133.459 106.909 126.904 115.079 121.874 124.268C116.722 133.682 113.354 143.844 111.864 154.472L111.753 155.267L110.952 155.33C101.994 156.031 93.375 158.39 85.3349 162.34C77.5224 166.179 70.5463 171.371 64.6001 177.771C52.3819 190.924 45.6531 208.06 45.6531 226.024C45.6531 235.597 47.5278 244.884 51.2253 253.626C53.0025 257.828 55.2022 261.88 57.7633 265.671C60.3003 269.426 63.2138 272.957 66.423 276.167C69.6322 279.376 73.1634 282.289 76.9186 284.826C80.7095 287.387 84.7621 289.587 88.9637 291.364C97.7055 295.062 106.992 296.937 116.566 296.937H307.998H320.09ZM320.09 297.937H307.998H116.566C76.8497 297.937 44.6531 265.74 44.6531 226.024C44.6531 188.223 73.8177 157.234 110.874 154.333C117.003 110.594 154.57 76.937 199.998 76.937C233.701 76.937 263.075 95.4601 278.498 122.883C287.74 119.678 297.665 117.937 307.998 117.937C357.704 117.937 397.998 158.231 397.998 207.937C397.998 222.396 394.589 236.058 388.53 248.164C379.193 277.046 352.081 297.937 320.09 297.937Z" fill="white" fill-opacity="0.5"/>
</g>
</g>
<defs>
<filter id="filter0_f" x="16" y="16" width="385.998" height="349.937" filterUnits="userSpaceOnUse" color-interpolation-filters="sRGB">
<feFlood flood-opacity="0" result="BackgroundImageFix"/>
<feBlend mode="normal" in="SourceGraphic" in2="BackgroundImageFix" result="shape"/>
<feGaussianBlur stdDeviation="2" result="effect1_foregroundBlur"/>
</filter>
<filter id="filter1_f" x="0" y="0" width="195.305" height="172.168" filterUnits="userSpaceOnUse" color-interpolation-filters="sRGB">
<feFlood flood-opacity="0" result="BackgroundImageFix"/>
<feBlend mode="normal" in="SourceGraphic" in2="BackgroundImageFix" result="shape"/>
<feGaussianBlur stdDeviation="10" result="effect1_foregroundBlur"/>
</filter>
<filter id="filter2_d" x="24.6531" y="48.937" width="413.345" height="281" filterUnits="userSpaceOnUse" color-interpolation-filters="sRGB">
<feFlood flood-opacity="0" result="BackgroundImageFix"/>
<feColorMatrix in="SourceAlpha" type="matrix" values="0 0 0 0 0 0 0 0 0 0 0 0 0 0 0 0 0 0 127 0" result="hardAlpha"/>
<feOffset dx="10" dy="2"/>
<feGaussianBlur stdDeviation="15"/>
<feColorMatrix type="matrix" values="0 0 0 0 0.501961 0 0 0 0 0.501961 0 0 0 0 0.501961 0 0 0 0.302 0"/>
<feBlend mode="normal" in2="BackgroundImageFix" result="effect1_dropShadow"/>
<feBlend mode="normal" in="SourceGraphic" in2="effect1_dropShadow" result="shape"/>
</filter>
<linearGradient id="paint0_linear" x1="221.351" y1="76.9395" x2="323.994" y2="325.103" gradientUnits="userSpaceOnUse">
<stop stop-color="white" stop-opacity="0.604"/>
<stop offset="1" stop-color="white" stop-opacity="0.2"/>
</linearGradient>
</defs>
</svg>
