<svg width="439" height="387" viewBox="0 0 439 387" fill="none" xmlns="http://www.w3.org/2000/svg">
<g filter="url(#filter0_f)">
<path d="M152.044 244.536L218.727 351.228" stroke="#42A0F0" stroke-width="9" stroke-linecap="round"/>
<path d="M168.132 270.75L174.652 240.297" stroke="#42A0F0" stroke-width="9" stroke-linecap="round"/>
<path d="M168.132 270.75L137.309 263.637" stroke="#42A0F0" stroke-width="9" stroke-linecap="round"/>
<path d="M203.696 327.652L233.926 335.136" stroke="#42A0F0" stroke-width="9" stroke-linecap="round"/>
<path d="M203.696 327.652L196.583 358.475" stroke="#42A0F0" stroke-width="9" stroke-linecap="round"/>
<path d="M214.936 242.935L155.879 354.03" stroke="#42A0F0" stroke-width="9" stroke-linecap="round"/>
<path d="M200.278 269.974L229.91 260.395" stroke="#42A0F0" stroke-width="9" stroke-linecap="round"/>
<path d="M200.278 269.974L191.026 239.724" stroke="#42A0F0" stroke-width="9" stroke-linecap="round"/>
<path d="M168.781 329.225L177.415 359.147" stroke="#42A0F0" stroke-width="9" stroke-linecap="round"/>
<path d="M168.781 329.225L138.53 338.476" stroke="#42A0F0" stroke-width="9" stroke-linecap="round"/>
<path d="M247.768 296.6L122.028 301.002" stroke="#42A0F0" stroke-width="9" stroke-linecap="round"/>
<path d="M217.022 297.425L240.135 318.298" stroke="#42A0F0" stroke-width="9" stroke-linecap="round"/>
<path d="M217.022 297.425L238.594 274.288" stroke="#42A0F0" stroke-width="9" stroke-linecap="round"/>
<path d="M149.961 299.773L128.365 322.212" stroke="#42A0F0" stroke-width="9" stroke-linecap="round"/>
<path d="M149.961 299.773L126.824 278.202" stroke="#42A0F0" stroke-width="9" stroke-linecap="round"/>
<path d="M318.38 311.949L293.007 368.928" stroke="#42A0F0" stroke-width="6.00313" stroke-linecap="round"/>
<path d="M312.063 325.827L326.387 320.066" stroke="#42A0F0" stroke-width="6.00313" stroke-linecap="round"/>
<path d="M312.063 325.827L306.444 311.186" stroke="#42A0F0" stroke-width="6.00313" stroke-linecap="round"/>
<path d="M298.531 356.215L303.833 370.715" stroke="#42A0F0" stroke-width="6.00313" stroke-linecap="round"/>
<path d="M298.531 356.215L283.891 361.834" stroke="#42A0F0" stroke-width="6.00313" stroke-linecap="round"/>
<path d="M336.468 337.356L274.437 343.872" stroke="#42A0F0" stroke-width="6.00313" stroke-linecap="round"/>
<path d="M321.291 338.825L333.441 348.349" stroke="#42A0F0" stroke-width="6.00313" stroke-linecap="round"/>
<path d="M321.291 338.825L331.161 326.638" stroke="#42A0F0" stroke-width="6.00313" stroke-linecap="round"/>
<path d="M288.208 342.3L278.302 354.142" stroke="#42A0F0" stroke-width="6.00313" stroke-linecap="round"/>
<path d="M288.208 342.3L276.021 332.43" stroke="#42A0F0" stroke-width="6.00313" stroke-linecap="round"/>
<path d="M323.509 365.724L286.85 315.262" stroke="#42A0F0" stroke-width="6.00313" stroke-linecap="round"/>
<path d="M314.649 353.315L312.476 368.599" stroke="#42A0F0" stroke-width="6.00313" stroke-linecap="round"/>
<path d="M314.649 353.315L330.138 355.769" stroke="#42A0F0" stroke-width="6.00313" stroke-linecap="round"/>
<path d="M295.098 326.401L279.89 323.743" stroke="#42A0F0" stroke-width="6.00313" stroke-linecap="round"/>
<path d="M295.098 326.402L297.552 310.913" stroke="#42A0F0" stroke-width="6.00313" stroke-linecap="round"/>
<path d="M123.148 233.763C177.548 233.763 221.648 189.439 221.648 134.763C221.648 80.087 177.548 35.7632 123.148 35.7632C68.7479 35.7632 24.6479 80.087 24.6479 134.763C24.6479 189.439 68.7479 233.763 123.148 233.763Z" fill="#FA9E42"/>
<g filter="url(#filter1_f)">
<path d="M116.03 120.684C148.767 103.296 167.077 73.7094 156.928 54.6002C146.778 35.4909 112.012 34.0954 79.2749 51.4833C46.5383 68.8712 28.228 98.4579 38.3778 117.567C48.5275 136.676 83.2938 138.072 116.03 120.684Z" fill="#F8E36F"/>
</g>
<g filter="url(#filter2_d)">
<path d="M308.345 304.763H116.913C98.3426 304.749 80.4976 297.552 67.1137 284.678C53.7298 271.804 45.8447 254.252 45.1092 235.696C44.3737 217.141 50.8448 199.02 63.1677 185.127C75.4906 171.234 92.71 162.647 111.221 161.163C113.861 142.523 122.278 125.18 135.289 111.573C148.299 97.9664 165.248 88.7811 183.752 85.3095C202.255 81.8379 221.381 84.2547 238.439 92.2199C255.497 100.185 269.628 113.298 278.845 129.713C295.75 123.861 314.015 123.177 331.31 127.749C348.605 132.32 364.146 141.94 375.952 155.38C387.757 168.821 395.292 185.473 397.594 203.213C399.896 220.953 396.862 238.977 388.879 254.986C384.194 269.451 375.047 282.059 362.751 291.002C350.455 299.945 335.641 304.763 320.437 304.763H308.345Z" fill="url(#paint0_linear)"/>
<path d="M320.437 303.763C328.157 303.763 335.748 302.53 342.998 300.099C350.009 297.748 356.59 294.317 362.56 289.902C368.462 285.538 373.635 280.31 377.936 274.363C382.29 268.343 385.652 261.72 387.928 254.678L387.951 254.606L387.985 254.538C391.011 248.491 393.341 242.094 394.911 235.524C396.526 228.763 397.345 221.778 397.345 214.763C397.345 208.724 396.737 202.688 395.537 196.825C394.368 191.111 392.623 185.491 390.352 180.12C388.121 174.847 385.361 169.761 382.146 165.003C378.962 160.29 375.306 155.858 371.278 151.83C367.25 147.803 362.819 144.146 358.106 140.962C353.348 137.748 348.261 134.987 342.988 132.756C337.617 130.485 331.997 128.74 326.283 127.571C320.42 126.371 314.385 125.763 308.345 125.763C298.346 125.763 288.531 127.408 279.172 130.654L278.383 130.928L277.973 130.199C270.357 116.658 259.279 105.285 245.937 97.311C239.189 93.2785 231.94 90.1622 224.391 88.0489C216.602 85.8686 208.512 84.7632 200.345 84.7632C189.361 84.7632 178.638 86.7402 168.475 90.6392C158.657 94.4059 149.65 99.8469 141.705 106.811C133.806 113.735 127.251 121.905 122.221 131.094C117.069 140.508 113.701 150.67 112.211 161.298L112.1 162.094L111.299 162.156C102.341 162.857 93.7219 165.216 85.6818 169.166C77.8694 173.005 70.8932 178.197 64.947 184.598C52.7289 197.75 46 214.886 46 232.85C46 242.424 47.8748 251.71 51.5723 260.452C53.3495 264.654 55.5491 268.706 58.1102 272.497C60.6472 276.252 63.5607 279.784 66.7699 282.993C69.9791 286.202 73.5104 289.116 77.2655 291.652C81.0565 294.214 85.109 296.413 89.3106 298.19C98.0525 301.888 107.339 303.763 116.913 303.763H308.345H320.437ZM320.437 304.763H308.345H116.913C77.1966 304.763 45 272.566 45 232.85C45 195.049 74.1646 164.06 111.221 161.159C117.35 117.421 154.917 83.7632 200.345 83.7632C234.048 83.7632 263.422 102.286 278.845 129.709C288.087 126.504 298.012 124.763 308.345 124.763C358.051 124.763 398.345 165.058 398.345 214.763C398.345 229.219 394.936 242.882 388.879 254.986C379.544 283.871 352.431 304.763 320.437 304.763Z" fill="white" fill-opacity="0.5"/>
</g>
</g>
<defs>
<filter id="filter0_f" x="16" y="16" width="386.345" height="362.678" filterUnits="userSpaceOnUse" color-interpolation-filters="sRGB">
<feFlood flood-opacity="0" result="BackgroundImageFix"/>
<feBlend mode="normal" in="SourceGraphic" in2="BackgroundImageFix" result="shape"/>
<feGaussianBlur stdDeviation="2" result="effect1_foregroundBlur"/>
</filter>
<filter id="filter1_f" x="0" y="0" width="195.305" height="172.168" filterUnits="userSpaceOnUse" color-interpolation-filters="sRGB">
<feFlood flood-opacity="0" result="BackgroundImageFix"/>
<feBlend mode="normal" in="SourceGraphic" in2="BackgroundImageFix" result="shape"/>
<feGaussianBlur stdDeviation="10" result="effect1_foregroundBlur"/>
</filter>
<filter id="filter2_d" x="25" y="55.7632" width="413.345" height="281" filterUnits="userSpaceOnUse" color-interpolation-filters="sRGB">
<feFlood flood-opacity="0" result="BackgroundImageFix"/>
<feColorMatrix in="SourceAlpha" type="matrix" values="0 0 0 0 0 0 0 0 0 0 0 0 0 0 0 0 0 0 127 0" result="hardAlpha"/>
<feOffset dx="10" dy="2"/>
<feGaussianBlur stdDeviation="15"/>
<feColorMatrix type="matrix" values="0 0 0 0 0.501961 0 0 0 0 0.501961 0 0 0 0 0.501961 0 0 0 0.302 0"/>
<feBlend mode="normal" in2="BackgroundImageFix" result="effect1_dropShadow"/>
<feBlend mode="normal" in="SourceGraphic" in2="effect1_dropShadow" result="shape"/>
</filter>
<linearGradient id="paint0_linear" x1="221.698" y1="83.7656" x2="324.341" y2="331.929" gradientUnits="userSpaceOnUse">
<stop stop-color="white" stop-opacity="0.604"/>
<stop offset="1" stop-color="white" stop-opacity="0.2"/>
</linearGradient>
</defs>
</svg>
