<svg width="442" height="330" viewBox="0 0 442 330" fill="none" xmlns="http://www.w3.org/2000/svg">
<g filter="url(#filter0_f)">
<path d="M107.268 25.7231C114.278 25.7214 121.27 26.4296 128.137 27.8371C141.39 30.5668 153.974 35.8888 165.164 43.4971C180.667 54.0048 193.053 68.4945 201.021 85.4436C208.989 102.393 212.244 121.175 210.444 139.817C208.645 158.458 201.856 176.271 190.793 191.383C179.73 206.495 164.801 218.347 147.574 225.695C141.312 228.356 134.8 230.388 128.136 231.76C113.685 234.69 98.7755 234.508 84.4006 231.224C70.0257 227.941 56.5155 221.632 44.77 212.718C33.0245 203.804 23.3133 192.489 16.2833 179.528C9.25325 166.566 5.06584 152.256 3.99998 137.549C15.3315 140.201 27.1024 140.372 38.506 138.049C48.739 135.953 58.4592 131.863 67.112 126.012C79.9743 117.329 90.0423 105.102 96.096 90.8121C98.1415 85.9726 99.7028 80.9424 100.757 75.7951C103.004 64.7664 102.921 53.3898 100.513 42.3951C99.3017 36.8974 97.5103 31.5437 95.169 26.4241C99.1851 25.9568 103.225 25.7227 107.268 25.7231Z" fill="#713FFD"/>
<g filter="url(#filter1_f)">
<path d="M177.339 57.8961C154.095 36.9666 123.644 32.8914 109.325 48.7938C95.0065 64.6962 102.242 94.5544 125.487 115.484C148.732 136.413 179.183 140.489 193.501 124.586C207.82 108.684 200.584 78.8256 177.339 57.8961Z" fill="#A586FC"/>
</g>
<g filter="url(#filter2_d)">
<path d="M311.999 297.875H120.567C101.997 297.861 84.1515 290.664 70.7676 277.79C57.3837 264.916 49.4987 247.364 48.7631 228.809C48.0276 210.253 54.4987 192.132 66.8216 178.239C79.1446 164.346 96.3639 155.759 114.875 154.275C117.515 135.635 125.932 118.292 138.943 104.685C151.953 91.0784 168.902 81.8932 187.406 78.4216C205.909 74.95 225.035 77.3668 242.093 85.3319C259.151 93.2971 273.282 106.41 282.499 122.825C299.404 116.973 317.669 116.289 334.965 120.861C352.26 125.433 367.802 135.053 379.607 148.494C391.412 161.935 398.947 178.588 401.248 196.329C403.55 214.069 400.515 232.093 392.531 248.102C387.845 262.566 378.698 275.173 366.403 284.115C354.107 293.057 339.295 297.874 324.091 297.875H311.999Z" fill="url(#paint0_linear)"/>
<path d="M324.091 296.875C331.81 296.875 339.4 295.642 346.65 293.211C353.66 290.86 360.241 287.43 366.211 283.015C372.112 278.651 377.285 273.424 381.586 267.478C385.941 261.458 389.303 254.835 391.579 247.794L391.603 247.722L391.637 247.654C394.664 241.606 396.995 235.208 398.565 228.638C400.18 221.878 400.999 214.892 400.999 207.875C400.999 201.836 400.391 195.801 399.191 189.937C398.022 184.223 396.277 178.603 394.006 173.232C391.775 167.959 389.014 162.873 385.8 158.115C382.616 153.402 378.959 148.97 374.932 144.942C370.904 140.915 366.472 137.258 361.759 134.074C357.001 130.86 351.915 128.099 346.642 125.868C341.271 123.597 335.651 121.852 329.937 120.683C324.074 119.483 318.038 118.875 311.999 118.875C302 118.875 292.184 120.52 282.826 123.766L282.037 124.04L281.627 123.311C274.011 109.769 262.933 98.3969 249.591 90.4231C242.843 86.3905 235.594 83.2742 228.045 81.1609C220.256 78.9807 212.166 77.8752 203.999 77.8752C193.015 77.8752 182.292 79.8522 172.129 83.7513C162.311 87.5179 153.304 92.959 145.359 99.9232C137.46 106.847 130.905 115.017 125.875 124.206C120.722 133.62 117.355 143.783 115.865 154.41L115.754 155.206L114.953 155.268C105.995 155.97 97.3759 158.328 89.3358 162.278C81.5234 166.117 74.5472 171.309 68.601 177.71C56.3829 190.862 49.654 207.999 49.654 225.962C49.654 235.536 51.5288 244.822 55.2263 253.564C57.0034 257.766 59.2031 261.818 61.7642 265.609C64.3012 269.364 67.2147 272.896 70.4239 276.105C73.6331 279.314 77.1644 282.228 80.9195 284.765C84.7104 287.326 88.763 289.525 92.9646 291.303C101.706 295 110.993 296.875 120.567 296.875H311.999H324.091ZM324.091 297.875H311.999H120.567C80.8506 297.875 48.654 265.678 48.654 225.962C48.654 188.161 77.8186 157.172 114.875 154.271C121.004 110.533 158.571 76.8752 203.999 76.8752C237.701 76.8752 267.076 95.3984 282.499 122.821C291.741 119.616 301.666 117.875 311.999 117.875C361.705 117.875 401.999 158.17 401.999 207.875C401.999 222.334 398.59 235.996 392.531 248.102C383.194 276.984 356.081 297.875 324.091 297.875Z" fill="white" fill-opacity="0.5"/>
</g>
</g>
<defs>
<filter id="filter0_f" x="0" y="16" width="405.999" height="285.875" filterUnits="userSpaceOnUse" color-interpolation-filters="sRGB">
<feFlood flood-opacity="0" result="BackgroundImageFix"/>
<feBlend mode="normal" in="SourceGraphic" in2="BackgroundImageFix" result="shape"/>
<feGaussianBlur stdDeviation="2" result="effect1_foregroundBlur"/>
</filter>
<filter id="filter1_f" x="63.399" y="0" width="176.028" height="173.38" filterUnits="userSpaceOnUse" color-interpolation-filters="sRGB">
<feFlood flood-opacity="0" result="BackgroundImageFix"/>
<feBlend mode="normal" in="SourceGraphic" in2="BackgroundImageFix" result="shape"/>
<feGaussianBlur stdDeviation="10" result="effect1_foregroundBlur"/>
</filter>
<filter id="filter2_d" x="28.654" y="48.8752" width="413.345" height="281" filterUnits="userSpaceOnUse" color-interpolation-filters="sRGB">
<feFlood flood-opacity="0" result="BackgroundImageFix"/>
<feColorMatrix in="SourceAlpha" type="matrix" values="0 0 0 0 0 0 0 0 0 0 0 0 0 0 0 0 0 0 127 0" result="hardAlpha"/>
<feOffset dx="10" dy="2"/>
<feGaussianBlur stdDeviation="15"/>
<feColorMatrix type="matrix" values="0 0 0 0 0.501961 0 0 0 0 0.501961 0 0 0 0 0.501961 0 0 0 0.302 0"/>
<feBlend mode="normal" in2="BackgroundImageFix" result="effect1_dropShadow"/>
<feBlend mode="normal" in="SourceGraphic" in2="effect1_dropShadow" result="shape"/>
</filter>
<linearGradient id="paint0_linear" x1="225.352" y1="76.8777" x2="327.995" y2="325.041" gradientUnits="userSpaceOnUse">
<stop stop-color="white" stop-opacity="0.604"/>
<stop offset="1" stop-color="white" stop-opacity="0.2"/>
</linearGradient>
</defs>
</svg>