<svg width="424" height="369" viewBox="0 0 424 369" fill="none" xmlns="http://www.w3.org/2000/svg">
<g filter="url(#filter0_f)">
<path d="M108.819 312.001C110.419 312.019 126.637 337.342 126.637 347.183C126.637 351.909 124.76 356.441 121.418 359.782C118.077 363.124 113.545 365.001 108.819 365.001C104.093 365.001 99.5613 363.124 96.2197 359.782C92.8782 356.441 91.001 351.909 91.001 347.183C91.001 337.343 107.22 311.983 108.819 312.001Z" fill="#42A0F0"/>
<path d="M95.2341 353.842C97.0145 354.387 99.2772 352.148 100.288 348.841C101.299 345.535 100.675 342.414 98.8946 341.869C97.1142 341.325 94.8515 343.564 93.8407 346.87C92.8298 350.176 93.4537 353.298 95.2341 353.842Z" fill="white"/>
<path d="M201.819 312.001C203.419 312.019 219.637 337.342 219.637 347.183C219.637 351.909 217.76 356.441 214.418 359.782C211.077 363.124 206.545 365.001 201.819 365.001C197.093 365.001 192.561 363.124 189.22 359.782C185.878 356.441 184.001 351.909 184.001 347.183C184.001 337.343 200.22 311.983 201.819 312.001Z" fill="#42A0F0"/>
<path d="M188.234 353.842C190.015 354.387 192.277 352.148 193.288 348.841C194.299 345.535 193.675 342.414 191.895 341.869C190.114 341.325 187.852 343.564 186.841 346.87C185.83 350.176 186.454 353.298 188.234 353.842Z" fill="white"/>
<path d="M294.819 312.001C296.419 312.019 312.637 337.342 312.637 347.183C312.637 351.909 310.76 356.441 307.418 359.782C304.077 363.124 299.545 365.001 294.819 365.001C290.093 365.001 285.561 363.124 282.22 359.782C278.878 356.441 277.001 351.909 277.001 347.183C277.001 337.343 293.22 311.983 294.819 312.001Z" fill="#42A0F0"/>
<path d="M281.234 353.842C283.015 354.387 285.277 352.148 286.288 348.841C287.299 345.535 286.675 342.414 284.895 341.869C283.114 341.325 280.852 343.564 279.841 346.87C278.83 350.176 279.454 353.298 281.234 353.842Z" fill="white"/>
<path d="M155.819 234.001C157.419 234.019 173.637 259.342 173.637 269.183C173.637 273.909 171.76 278.441 168.418 281.782C165.077 285.124 160.545 287.001 155.819 287.001C151.093 287.001 146.561 285.124 143.22 281.782C139.878 278.441 138.001 273.909 138.001 269.183C138.001 259.343 154.22 233.983 155.819 234.001Z" fill="#42A0F0"/>
<path d="M142.234 275.842C144.015 276.387 146.277 274.148 147.288 270.841C148.299 267.535 147.675 264.414 145.895 263.869C144.114 263.325 141.851 265.564 140.841 268.87C139.83 272.176 140.454 275.298 142.234 275.842Z" fill="white"/>
<path d="M253.819 234.001C255.419 234.019 271.637 259.342 271.637 269.183C271.637 273.909 269.76 278.441 266.418 281.782C263.077 285.124 258.545 287.001 253.819 287.001C249.093 287.001 244.561 285.124 241.22 281.782C237.878 278.441 236.001 273.909 236.001 269.183C236.001 259.343 252.22 233.983 253.819 234.001Z" fill="#42A0F0"/>
<path d="M240.234 275.842C242.015 276.387 244.277 274.148 245.288 270.841C246.299 267.535 245.675 264.414 243.895 263.869C242.114 263.325 239.852 265.564 238.841 268.87C237.83 272.176 238.454 275.298 240.234 275.842Z" fill="white"/>
<path d="M107.268 25.7231C114.278 25.7214 121.27 26.4296 128.137 27.8371C141.391 30.5668 153.974 35.8888 165.164 43.4971C180.667 54.0048 193.053 68.4945 201.021 85.4436C208.989 102.393 212.244 121.175 210.444 139.817C208.645 158.458 201.857 176.271 190.793 191.383C179.73 206.495 164.801 218.347 147.574 225.695C141.312 228.356 134.8 230.388 128.136 231.76C113.685 234.69 98.7755 234.508 84.4007 231.224C70.0258 227.941 56.5156 221.632 44.7701 212.718C33.0246 203.804 23.3133 192.489 16.2833 179.528C9.25331 166.566 5.0659 152.256 4.00005 137.549C15.3315 140.201 27.1025 140.372 38.506 138.049C48.7391 135.953 58.4593 131.863 67.112 126.012C79.9743 117.329 90.0423 105.102 96.0961 90.8121C98.1416 85.9726 99.7028 80.9424 100.757 75.7951C103.004 64.7664 102.921 53.3898 100.513 42.3951C99.3017 36.8974 97.5104 31.5437 95.1691 26.4241C99.1851 25.9568 103.225 25.7227 107.268 25.7231Z" fill="#713FFD"/>
<g filter="url(#filter1_f)">
<path d="M177.339 57.8964C154.095 36.9669 123.644 32.8916 109.325 48.7941C95.0065 64.6965 102.242 94.5547 125.487 115.484C148.732 136.414 179.182 140.489 193.501 124.586C207.82 108.684 200.584 78.8259 177.339 57.8964Z" fill="#A586FC"/>
</g>
<g filter="url(#filter2_d)">
<path d="M293.999 301.002H102.567C83.9967 300.988 66.1516 293.791 52.7677 280.917C39.3838 268.044 31.4988 250.492 30.7633 231.936C30.0278 213.38 36.4988 195.259 48.8217 181.366C61.1447 167.473 78.3641 158.886 96.8751 157.402C99.5149 138.762 107.932 121.419 120.943 107.812C133.953 94.2056 150.902 85.0204 169.406 81.5488C187.909 78.0772 207.035 80.4939 224.093 88.4591C241.151 96.4243 255.282 109.537 264.499 125.952C281.404 120.1 299.669 119.417 316.965 123.988C334.26 128.56 349.802 138.18 361.607 151.621C373.413 165.062 380.947 181.715 383.249 199.456C385.55 217.196 382.516 235.221 374.531 251.229C369.846 265.693 360.699 278.3 348.403 287.242C336.107 296.184 321.295 301.002 306.091 301.002H293.999Z" fill="url(#paint0_linear)"/>
<path d="M306.091 300.002C313.81 300.002 321.4 298.769 328.65 296.338C335.66 293.988 342.242 290.557 348.211 286.142C354.112 281.778 359.285 276.551 363.586 270.605C367.941 264.585 371.303 257.962 373.579 250.922L373.603 250.849L373.637 250.782C376.664 244.734 378.995 238.336 380.565 231.766C382.18 225.005 382.999 218.019 382.999 211.002C382.999 204.963 382.391 198.928 381.191 193.064C380.022 187.351 378.277 181.73 376.006 176.36C373.775 171.086 371.014 166 367.8 161.242C364.616 156.529 360.96 152.097 356.932 148.07C352.904 144.042 348.472 140.385 343.759 137.201C339.001 133.987 333.915 131.226 328.642 128.996C323.271 126.724 317.651 124.979 311.937 123.81C306.074 122.61 300.039 122.002 293.999 122.002C284 122.002 274.185 123.648 264.826 126.893L264.037 127.167L263.627 126.439C256.011 112.897 244.933 101.524 231.591 93.5503C224.843 89.5177 217.594 86.4014 210.045 84.2881C202.256 82.1079 194.166 81.0024 185.999 81.0024C175.015 81.0024 164.292 82.9794 154.129 86.8785C144.311 90.6451 135.304 96.0862 127.359 103.05C119.46 109.975 112.905 118.145 107.875 127.333C102.723 136.748 99.3546 146.91 97.8653 157.537L97.7539 158.333L96.9531 158.396C87.9948 159.097 79.376 161.455 71.3358 165.406C63.5234 169.244 56.5472 174.436 50.6011 180.837C38.3829 193.989 31.6541 211.126 31.6541 229.089C31.6541 238.663 33.5288 247.949 37.2263 256.691C39.0035 260.893 41.2032 264.946 43.7643 268.736C46.3012 272.492 49.2148 276.023 52.424 279.232C55.6331 282.441 59.1644 285.355 62.9196 287.892C66.7105 290.453 70.7631 292.653 74.9647 294.43C83.7065 298.127 92.9932 300.002 102.567 300.002H293.999H306.091ZM306.091 301.002H293.999H102.567C62.8506 301.002 30.6541 268.805 30.6541 229.089C30.6541 191.288 59.8187 160.299 96.875 157.399C103.004 113.66 140.571 80.0024 185.999 80.0024C219.702 80.0024 249.076 98.5256 264.499 125.948C273.741 122.743 283.666 121.002 293.999 121.002C343.705 121.002 383.999 161.297 383.999 211.002C383.999 225.461 380.59 239.123 374.531 251.229C365.194 280.111 338.081 301.002 306.091 301.002Z" fill="white" fill-opacity="0.5"/>
</g>
</g>
<defs>
<filter id="filter0_f" x="0" y="16" width="387.999" height="353.001" filterUnits="userSpaceOnUse" color-interpolation-filters="sRGB">
<feFlood flood-opacity="0" result="BackgroundImageFix"/>
<feBlend mode="normal" in="SourceGraphic" in2="BackgroundImageFix" result="shape"/>
<feGaussianBlur stdDeviation="2" result="effect1_foregroundBlur"/>
</filter>
<filter id="filter1_f" x="63.3989" y="0" width="176.028" height="173.38" filterUnits="userSpaceOnUse" color-interpolation-filters="sRGB">
<feFlood flood-opacity="0" result="BackgroundImageFix"/>
<feBlend mode="normal" in="SourceGraphic" in2="BackgroundImageFix" result="shape"/>
<feGaussianBlur stdDeviation="10" result="effect1_foregroundBlur"/>
</filter>
<filter id="filter2_d" x="10.6541" y="52.0024" width="413.345" height="281" filterUnits="userSpaceOnUse" color-interpolation-filters="sRGB">
<feFlood flood-opacity="0" result="BackgroundImageFix"/>
<feColorMatrix in="SourceAlpha" type="matrix" values="0 0 0 0 0 0 0 0 0 0 0 0 0 0 0 0 0 0 127 0" result="hardAlpha"/>
<feOffset dx="10" dy="2"/>
<feGaussianBlur stdDeviation="15"/>
<feColorMatrix type="matrix" values="0 0 0 0 0.501961 0 0 0 0 0.501961 0 0 0 0 0.501961 0 0 0 0.302 0"/>
<feBlend mode="normal" in2="BackgroundImageFix" result="effect1_dropShadow"/>
<feBlend mode="normal" in="SourceGraphic" in2="effect1_dropShadow" result="shape"/>
</filter>
<linearGradient id="paint0_linear" x1="207.352" y1="80.0049" x2="309.995" y2="328.169" gradientUnits="userSpaceOnUse">
<stop stop-color="white" stop-opacity="0.604"/>
<stop offset="1" stop-color="white" stop-opacity="0.2"/>
</linearGradient>
</defs>
</svg>
