<svg width="437" height="383" viewBox="0 0 437 383" fill="none" xmlns="http://www.w3.org/2000/svg">
<g filter="url(#filter0_f)">
<path d="M150.044 240.773L216.727 347.466" stroke="#42A0F0" stroke-width="9" stroke-linecap="round"/>
<path d="M166.132 266.988L172.652 236.535" stroke="#42A0F0" stroke-width="9" stroke-linecap="round"/>
<path d="M166.132 266.988L135.309 259.875" stroke="#42A0F0" stroke-width="9" stroke-linecap="round"/>
<path d="M201.696 323.89L231.926 331.374" stroke="#42A0F0" stroke-width="9" stroke-linecap="round"/>
<path d="M201.696 323.89L194.583 354.713" stroke="#42A0F0" stroke-width="9" stroke-linecap="round"/>
<path d="M212.936 239.172L153.879 350.268" stroke="#42A0F0" stroke-width="9" stroke-linecap="round"/>
<path d="M198.278 266.212L227.91 256.633" stroke="#42A0F0" stroke-width="9" stroke-linecap="round"/>
<path d="M198.278 266.212L189.026 235.962" stroke="#42A0F0" stroke-width="9" stroke-linecap="round"/>
<path d="M166.781 325.463L175.415 355.385" stroke="#42A0F0" stroke-width="9" stroke-linecap="round"/>
<path d="M166.781 325.463L136.53 334.714" stroke="#42A0F0" stroke-width="9" stroke-linecap="round"/>
<path d="M245.768 292.837L120.028 297.24" stroke="#42A0F0" stroke-width="9" stroke-linecap="round"/>
<path d="M215.022 293.663L238.135 314.536" stroke="#42A0F0" stroke-width="9" stroke-linecap="round"/>
<path d="M215.022 293.663L236.594 270.526" stroke="#42A0F0" stroke-width="9" stroke-linecap="round"/>
<path d="M147.961 296.011L126.365 318.45" stroke="#42A0F0" stroke-width="9" stroke-linecap="round"/>
<path d="M147.961 296.011L124.824 274.439" stroke="#42A0F0" stroke-width="9" stroke-linecap="round"/>
<path d="M316.38 308.187L291.007 365.166" stroke="#42A0F0" stroke-width="6.00313" stroke-linecap="round"/>
<path d="M310.063 322.064L324.387 316.304" stroke="#42A0F0" stroke-width="6.00313" stroke-linecap="round"/>
<path d="M310.063 322.064L304.444 307.424" stroke="#42A0F0" stroke-width="6.00313" stroke-linecap="round"/>
<path d="M296.531 352.453L301.833 366.953" stroke="#42A0F0" stroke-width="6.00313" stroke-linecap="round"/>
<path d="M296.531 352.453L281.891 358.072" stroke="#42A0F0" stroke-width="6.00313" stroke-linecap="round"/>
<path d="M334.468 333.594L272.437 340.11" stroke="#42A0F0" stroke-width="6.00313" stroke-linecap="round"/>
<path d="M319.291 335.063L331.441 344.587" stroke="#42A0F0" stroke-width="6.00313" stroke-linecap="round"/>
<path d="M319.291 335.063L329.161 322.876" stroke="#42A0F0" stroke-width="6.00313" stroke-linecap="round"/>
<path d="M286.208 338.538L276.302 350.379" stroke="#42A0F0" stroke-width="6.00313" stroke-linecap="round"/>
<path d="M286.208 338.538L274.021 328.668" stroke="#42A0F0" stroke-width="6.00313" stroke-linecap="round"/>
<path d="M321.509 361.962L284.85 311.499" stroke="#42A0F0" stroke-width="6.00313" stroke-linecap="round"/>
<path d="M312.649 349.553L310.476 364.837" stroke="#42A0F0" stroke-width="6.00313" stroke-linecap="round"/>
<path d="M312.649 349.553L328.138 352.007" stroke="#42A0F0" stroke-width="6.00313" stroke-linecap="round"/>
<path d="M293.098 322.639L277.89 319.981" stroke="#42A0F0" stroke-width="6.00313" stroke-linecap="round"/>
<path d="M293.098 322.639L295.552 307.151" stroke="#42A0F0" stroke-width="6.00313" stroke-linecap="round"/>
<path d="M107.268 25.7231C114.278 25.7214 121.27 26.4296 128.137 27.8371C141.39 30.5668 153.974 35.8888 165.164 43.4971C180.667 54.0048 193.053 68.4945 201.021 85.4436C208.989 102.393 212.244 121.175 210.444 139.817C208.644 158.458 201.856 176.271 190.793 191.383C179.73 206.495 164.801 218.347 147.574 225.695C141.312 228.356 134.8 230.388 128.136 231.76C113.685 234.69 98.7754 234.508 84.4005 231.224C70.0257 227.941 56.5155 221.632 44.77 212.718C33.0244 203.804 23.3132 192.489 16.2832 179.528C9.25319 166.566 5.06578 152.256 3.99992 137.549C15.3314 140.201 27.1023 140.372 38.5059 138.049C48.7389 135.953 58.4592 131.863 67.1119 126.012C79.9742 117.329 90.0422 105.102 96.0959 90.8121C98.1414 85.9726 99.7027 80.9424 100.757 75.7951C103.004 64.7664 102.921 53.3898 100.513 42.3951C99.3016 36.8974 97.5102 31.5437 95.1689 26.4241C99.185 25.9568 103.225 25.7227 107.268 25.7231Z" fill="#713FFD"/>
<g filter="url(#filter1_f)">
<path d="M177.339 57.8964C154.095 36.9669 123.644 32.8916 109.325 48.7941C95.0065 64.6965 102.242 94.5547 125.487 115.484C148.732 136.414 179.182 140.489 193.501 124.586C207.82 108.684 200.584 78.8259 177.339 57.8964Z" fill="#A586FC"/>
</g>
<g filter="url(#filter2_d)">
<path d="M306.345 301.002H114.913C96.3426 300.988 78.4976 293.791 65.1137 280.917C51.7298 268.044 43.8447 250.492 43.1092 231.936C42.3737 213.38 48.8448 195.259 61.1677 181.366C73.4906 167.473 90.71 158.886 109.221 157.402C111.861 138.762 120.278 121.419 133.289 107.812C146.299 94.2056 163.248 85.0204 181.752 81.5488C200.255 78.0772 219.381 80.4939 236.439 88.4591C253.497 96.4243 267.628 109.537 276.845 125.952C293.75 120.101 312.015 119.417 329.31 123.988C346.605 128.559 362.146 138.179 373.952 151.619C385.757 165.06 393.292 181.712 395.594 199.452C397.896 217.193 394.862 235.217 386.879 251.225C382.194 265.69 373.047 278.299 360.751 287.242C348.455 296.185 333.641 301.002 318.437 301.002H306.345Z" fill="url(#paint0_linear)"/>
<path d="M318.437 300.002C326.157 300.002 333.748 298.769 340.998 296.338C348.009 293.987 354.59 290.557 360.56 286.142C366.462 281.777 371.635 276.549 375.936 270.603C380.29 264.582 383.652 257.959 385.928 250.918L385.951 250.845L385.985 250.778C389.011 244.73 391.341 238.333 392.911 231.763C394.526 225.003 395.345 218.017 395.345 211.002C395.345 204.963 394.737 198.928 393.537 193.064C392.368 187.351 390.623 181.73 388.352 176.36C386.121 171.086 383.361 166 380.146 161.242C376.962 156.529 373.306 152.097 369.278 148.07C365.25 144.042 360.819 140.385 356.106 137.201C351.348 133.987 346.261 131.226 340.988 128.996C335.617 126.724 329.997 124.979 324.283 123.81C318.42 122.61 312.385 122.002 306.345 122.002C296.346 122.002 286.531 123.648 277.172 126.893L276.383 127.167L275.973 126.439C268.357 112.897 257.279 101.524 243.937 93.5503C237.189 89.5177 229.94 86.4015 222.391 84.2882C214.602 82.1079 206.512 81.0024 198.345 81.0024C187.361 81.0024 176.638 82.9794 166.475 86.8785C156.657 90.6451 147.65 96.0862 139.705 103.05C131.806 109.975 125.251 118.145 120.221 127.333C115.069 136.748 111.701 146.91 110.211 157.537L110.1 158.333L109.299 158.396C100.341 159.097 91.7219 161.455 83.6818 165.406C75.8694 169.244 68.8932 174.436 62.947 180.837C50.7289 193.989 44 211.126 44 229.089C44 238.663 45.8748 247.949 49.5723 256.691C51.3495 260.893 53.5491 264.946 56.1102 268.736C58.6472 272.492 61.5607 276.023 64.7699 279.232C67.9791 282.441 71.5104 285.355 75.2655 287.892C79.0565 290.453 83.109 292.653 87.3106 294.43C96.0525 298.127 105.339 300.002 114.913 300.002H306.345H318.437ZM318.437 301.002H306.345H114.913C75.1966 301.002 43 268.805 43 229.089C43 191.288 72.1646 160.299 109.221 157.399C115.35 113.66 152.917 80.0024 198.345 80.0024C232.048 80.0024 261.422 98.5257 276.845 125.948C286.087 122.743 296.012 121.002 306.345 121.002C356.051 121.002 396.345 161.297 396.345 211.002C396.345 225.458 392.936 239.121 386.879 251.225C377.544 280.111 350.431 301.002 318.437 301.002Z" fill="white" fill-opacity="0.5"/>
</g>
</g>
<defs>
<filter id="filter0_f" x="0" y="16" width="400.345" height="358.916" filterUnits="userSpaceOnUse" color-interpolation-filters="sRGB">
<feFlood flood-opacity="0" result="BackgroundImageFix"/>
<feBlend mode="normal" in="SourceGraphic" in2="BackgroundImageFix" result="shape"/>
<feGaussianBlur stdDeviation="2" result="effect1_foregroundBlur"/>
</filter>
<filter id="filter1_f" x="63.3989" y="0" width="176.028" height="173.38" filterUnits="userSpaceOnUse" color-interpolation-filters="sRGB">
<feFlood flood-opacity="0" result="BackgroundImageFix"/>
<feBlend mode="normal" in="SourceGraphic" in2="BackgroundImageFix" result="shape"/>
<feGaussianBlur stdDeviation="10" result="effect1_foregroundBlur"/>
</filter>
<filter id="filter2_d" x="23" y="52.0024" width="413.345" height="281" filterUnits="userSpaceOnUse" color-interpolation-filters="sRGB">
<feFlood flood-opacity="0" result="BackgroundImageFix"/>
<feColorMatrix in="SourceAlpha" type="matrix" values="0 0 0 0 0 0 0 0 0 0 0 0 0 0 0 0 0 0 127 0" result="hardAlpha"/>
<feOffset dx="10" dy="2"/>
<feGaussianBlur stdDeviation="15"/>
<feColorMatrix type="matrix" values="0 0 0 0 0.501961 0 0 0 0 0.501961 0 0 0 0 0.501961 0 0 0 0.302 0"/>
<feBlend mode="normal" in2="BackgroundImageFix" result="effect1_dropShadow"/>
<feBlend mode="normal" in="SourceGraphic" in2="effect1_dropShadow" result="shape"/>
</filter>
<linearGradient id="paint0_linear" x1="219.698" y1="80.0049" x2="322.341" y2="328.169" gradientUnits="userSpaceOnUse">
<stop stop-color="white" stop-opacity="0.604"/>
<stop offset="1" stop-color="white" stop-opacity="0.2"/>
</linearGradient>
</defs>
</svg>
