<svg width="22" height="22" viewBox="0 0 22 22" fill="none" xmlns="http://www.w3.org/2000/svg">
<path d="M9.33393 15.8344H2.83323V13.8342H9.33393C9.97275 13.8344 10.5993 14.0095 11.1458 14.3404C11.6922 14.6712 12.1377 15.1454 12.4339 15.7113C12.7302 16.2773 12.8659 16.9136 12.8264 17.5512C12.7868 18.1887 12.5736 18.8034 12.2097 19.3284C11.8458 19.8535 11.3452 20.2689 10.7621 20.5298C10.179 20.7907 9.53556 20.887 8.9016 20.8083C8.26765 20.7296 7.66731 20.479 7.16563 20.0835C6.66396 19.688 6.28007 19.1628 6.05558 18.5647L7.92878 17.8616C8.02497 18.118 8.18947 18.3431 8.40446 18.5126C8.61945 18.6821 8.87673 18.7896 9.14842 18.8233C9.42012 18.857 9.69587 18.8158 9.94579 18.704C10.1957 18.5922 10.4103 18.4142 10.5662 18.1892C10.7222 17.9642 10.8136 17.7008 10.8306 17.4275C10.8475 17.1543 10.7894 16.8816 10.6625 16.639C10.5355 16.3964 10.3446 16.1932 10.1104 16.0514C9.87624 15.9096 9.60771 15.8345 9.33393 15.8344ZM3.83333 9.83377H17.3348C17.9736 9.83399 18.6002 10.009 19.1466 10.3399C19.6931 10.6708 20.1386 11.1449 20.4348 11.7109C20.731 12.2769 20.8668 12.9131 20.8272 13.5507C20.7877 14.1883 20.5744 14.8029 20.2106 15.328C19.8467 15.853 19.3461 16.2685 18.763 16.5294C18.1798 16.7902 17.5364 16.8866 16.9025 16.8079C16.2685 16.7292 15.6682 16.4785 15.1665 16.0831C14.6648 15.6876 14.2809 15.1623 14.0564 14.5643L15.9296 13.8612C16.0258 14.1175 16.1903 14.3426 16.4053 14.5122C16.6203 14.6817 16.8776 14.7891 17.1493 14.8229C17.421 14.8566 17.6967 14.8154 17.9467 14.7036C18.1966 14.5918 18.4112 14.4138 18.5671 14.1887C18.7231 13.9637 18.8145 13.7003 18.8315 13.4271C18.8484 13.1538 18.7903 12.8811 18.6633 12.6386C18.5364 12.396 18.3455 12.1928 18.1113 12.051C17.8771 11.9091 17.6086 11.8341 17.3348 11.834H3.83333C3.0376 11.834 2.27445 11.5179 1.71178 10.9552C1.14911 10.3925 0.833008 9.62939 0.833008 8.83366C0.833008 8.03792 1.14911 7.27478 1.71178 6.71211C2.27445 6.14944 3.0376 5.83333 3.83333 5.83333H12.3343C12.608 5.83322 12.8766 5.75818 13.1108 5.61636C13.3449 5.47453 13.5358 5.27133 13.6628 5.02875C13.7897 4.78618 13.8479 4.51349 13.8309 4.24024C13.814 3.96698 13.7225 3.70358 13.5666 3.47857C13.4106 3.25355 13.196 3.07551 12.9461 2.96373C12.6962 2.85195 12.4204 2.8107 12.1487 2.84444C11.8771 2.87818 11.6198 2.98563 11.4048 3.15515C11.1898 3.32467 11.0253 3.54978 10.9291 3.80611L9.0559 3.10404C9.3444 2.33676 9.89297 1.69502 10.606 1.29065C11.3191 0.886275 12.1514 0.744895 12.958 0.891145C13.7645 1.03739 14.4942 1.462 15.0199 2.09098C15.5456 2.71996 15.8339 3.51344 15.8346 4.33317C15.8346 5.26153 15.4658 6.15186 14.8094 6.80831C14.153 7.46476 13.2626 7.83355 12.3343 7.83355H3.83333C3.56809 7.83355 3.31371 7.93892 3.12615 8.12647C2.93859 8.31403 2.83323 8.56841 2.83323 8.83366C2.83323 9.0989 2.93859 9.35328 3.12615 9.54084C3.31371 9.7284 3.56809 9.83377 3.83333 9.83377Z" fill="white"/>
</svg>
